<svg height="512" viewBox="0 0 512 512" width="512" xmlns="http://www.w3.org/2000/svg"><g id="BULINE"><circle cx="256" cy="256" fill="#d87a1d" r="256"/></g><g id="Icons"><path d="m489.08 362c-40.3 88.49-129.51 150-233.08 150a256.25 256.25 0 0 1 -233.08-150z" fill="#6b882d"/><path d="m392.85 384.66s-15.18 56.34-110.18 56.34h-203.62a256.89 256.89 0 0 1 -40.49-49.83 108.12 108.12 0 0 1 53-12.16l6.53.12 32.91.62h1.57l25.14.47 5.41.1 220.32 4.13h1.12z" fill="#62792a"/><path d="m188 83.74a32.5 32.5 0 1 0 54.06-36.1c-7.58-11.35-35.84-19.82-48.94-23.22a6.29 6.29 0 0 0 -7.81 5.22c-1.84 13.36-4.86 42.74 2.69 54.1z" fill="#6b882d"/><path d="m246.07 75.39a32.49 32.49 0 0 1 -58 8.35c-7.58-11.36-4.56-40.7-2.69-54.1a6.29 6.29 0 0 1 6.33-5.42c-1.71 14.78-2.91 37.44 3.53 47.09a32.52 32.52 0 0 0 45.08 9 32.13 32.13 0 0 0 5.75-4.92z" fill="#60762a"/><ellipse cx="215.23" cy="45.7" fill="#9abf45" rx="6.45" ry="10.31" transform="matrix(.509 -.86 .86 .509 66.23 207.61)"/><ellipse cx="234.89" cy="57.35" fill="#9abf45" rx="4.03" ry="6.45" transform="matrix(.51 -.86 .86 .51 65.86 230.24)"/><path d="m254.44 129a5 5 0 0 1 -4.55-2.92c-10.54-23-31.4-46.52-31.61-46.76a5 5 0 0 1 7.46-6.66c.89 1 22.06 24.85 33.25 49.25a5 5 0 0 1 -2.47 6.63 5 5 0 0 1 -2.08.46z" fill="#43691b"/><path d="m378.83 164.39h-246.24v220.26h246.24a110.13 110.13 0 0 0 0-220.26z" fill="#886243"/><path d="m198.77 239.62a72.25 72.25 0 0 1 3.94 8.79v-12.29zm250.17 106.61h-161.42a16.09 16.09 0 0 1 -14.52-23.12 110.17 110.17 0 0 0 -119.11-156.84 108.88 108.88 0 0 1 13.42 3.39l-1.78-.26-6.59-1-26.35-3.82-1.43-.21h-.16v220.29h247.83c1.55 0 3.1-.08 4.63-.17a110.1 110.1 0 0 0 78-39 109.72 109.72 0 0 1 -12.52.74zm-246.23-157.45a111 111 0 0 1 20.52 21.73 110.08 110.08 0 0 1 0 128q-2.85 4-6 7.68h-14.52z" fill="#78553d"/><circle cx="132.59" cy="274.52" fill="#a87755" r="110.13"/><circle cx="132.59" cy="274.52" fill="#95694d" r="96.62"/><path d="m135.67 371.1a108.28 108.28 0 0 0 24.94 9.95 110.13 110.13 0 1 1 0-213 108.7 108.7 0 0 0 -25 9.95 110.18 110.18 0 0 0 0 193.15z" fill="#956a4f"/><path d="m135.67 371.1c-1 0-2 0-3.08 0a96.63 96.63 0 0 1 0-193.25h3.06a110.18 110.18 0 0 0 0 193.15z" fill="#845c47"/><circle cx="132.59" cy="274.52" fill="#bd8564" r="74.81"/><circle cx="127.61" cy="274.52" fill="#ae7a5f" r="32.4"/><circle cx="127.61" cy="274.52" fill="#bd8564" r="20.52"/><path d="m102.34 343a74.82 74.82 0 0 1 0-136.85 110.1 110.1 0 0 0 0 136.85z" fill="#ae7a5f"/><rect fill="#ae7a5f" height="39.48" rx="8.05" width="16.1" x="119.56" y="196.61"/><rect fill="#ae7a5f" height="28.68" rx="7" transform="matrix(.861 -.509 .509 .861 -139.66 125.85)" width="16.1" x="151.96" y="303.66"/><rect fill="#845c47" height="39.48" rx="8.05" transform="matrix(-.664 -.748 .748 -.664 140.61 535.38)" width="16.1" x="182.55" y="216.36"/><rect fill="#845c47" height="39.48" rx="8.05" transform="matrix(.378 -.926 .926 .378 -191.24 239.6)" width="16.1" x="74.57" y="242.33"/><rect fill="#996d4e" height="17.66" rx="8.83" width="65.46" x="305.06" y="180.51"/><g fill="#78553d"><rect height="17.66" rx="8.83" width="65.46" x="400.65" y="265.69"/><rect height="17.66" rx="8.83" width="65.46" x="292.07" y="297.4"/><rect height="17.66" rx="8.83" width="65.46" x="263.5" y="243.08"/><rect height="17.66" rx="8.83" width="65.46" x="392.85" y="216.87"/></g><rect fill="#996d4e" height="17.66" rx="8.83" width="65.46" x="381.43" y="319.21"/><path d="m288.78 164.4h-50.56v-43.48a11.58 11.58 0 0 1 11.58-11.58h14.36a11.57 11.57 0 0 1 11.11 8.35l9 31.13z" fill="#78553d"/><path d="m288.78 164.4h-50.56v-15.58h46.05z" fill="#634634"/></g></svg>